<mxfile host="app.diagrams.net" modified="2023-02-14T10:15:46.323Z" agent="5.0 (X11; Linux x86_64) AppleWebKit/537.36 (KHTML, like Gecko) Chrome/98.0.4758.80 Safari/537.36" version="20.7.4" etag="Jy_eoErVGYO69UXqQFA4" type="github">
  <diagram id="DxiktCfPVhVCTb73MeIk" name="Page-1">
    <mxGraphModel dx="1647" dy="910" grid="1" gridSize="10" guides="1" tooltips="1" connect="1" arrows="1" fold="1" page="1" pageScale="1" pageWidth="850" pageHeight="1100" math="0" shadow="0">
      <root>
        <mxCell id="0" />
        <mxCell id="1" parent="0" />
        <mxCell id="bpLpSMuuCPS-NAAvhIt0-1" value="AsyncClientFactoryImpl" style="swimlane;fontStyle=1;align=center;verticalAlign=top;childLayout=stackLayout;horizontal=1;startSize=26;horizontalStack=0;resizeParent=1;resizeParentMax=0;resizeLast=0;collapsible=1;marginBottom=0;" vertex="1" parent="1">
          <mxGeometry x="360" y="430" width="320" height="60" as="geometry" />
        </mxCell>
        <mxCell id="bpLpSMuuCPS-NAAvhIt0-3" value="" style="line;strokeWidth=1;fillColor=none;align=left;verticalAlign=middle;spacingTop=-1;spacingLeft=3;spacingRight=3;rotatable=0;labelPosition=right;points=[];portConstraint=eastwest;strokeColor=inherit;" vertex="1" parent="bpLpSMuuCPS-NAAvhIt0-1">
          <mxGeometry y="26" width="320" height="8" as="geometry" />
        </mxCell>
        <mxCell id="bpLpSMuuCPS-NAAvhIt0-4" value="+ createUncachedRawAsyncClient(): RawAsyncClient" style="text;strokeColor=none;fillColor=none;align=left;verticalAlign=top;spacingLeft=4;spacingRight=4;overflow=hidden;rotatable=0;points=[[0,0.5],[1,0.5]];portConstraint=eastwest;" vertex="1" parent="bpLpSMuuCPS-NAAvhIt0-1">
          <mxGeometry y="34" width="320" height="26" as="geometry" />
        </mxCell>
        <mxCell id="bpLpSMuuCPS-NAAvhIt0-5" value="GoogleAsyncClientFactoryImpl" style="swimlane;fontStyle=1;align=center;verticalAlign=top;childLayout=stackLayout;horizontal=1;startSize=26;horizontalStack=0;resizeParent=1;resizeParentMax=0;resizeLast=0;collapsible=1;marginBottom=0;" vertex="1" parent="1">
          <mxGeometry x="360" y="977" width="320" height="60" as="geometry" />
        </mxCell>
        <mxCell id="bpLpSMuuCPS-NAAvhIt0-7" value="" style="line;strokeWidth=1;fillColor=none;align=left;verticalAlign=middle;spacingTop=-1;spacingLeft=3;spacingRight=3;rotatable=0;labelPosition=right;points=[];portConstraint=eastwest;strokeColor=inherit;" vertex="1" parent="bpLpSMuuCPS-NAAvhIt0-5">
          <mxGeometry y="26" width="320" height="8" as="geometry" />
        </mxCell>
        <mxCell id="bpLpSMuuCPS-NAAvhIt0-8" value="+ createUncachedRawAsyncClient(): RawAsyncClient" style="text;strokeColor=none;fillColor=none;align=left;verticalAlign=top;spacingLeft=4;spacingRight=4;overflow=hidden;rotatable=0;points=[[0,0.5],[1,0.5]];portConstraint=eastwest;" vertex="1" parent="bpLpSMuuCPS-NAAvhIt0-5">
          <mxGeometry y="34" width="320" height="26" as="geometry" />
        </mxCell>
        <mxCell id="bpLpSMuuCPS-NAAvhIt0-9" value="EnvoyGrpc" style="text;html=1;strokeColor=none;fillColor=none;align=center;verticalAlign=middle;whiteSpace=wrap;rounded=0;" vertex="1" parent="1">
          <mxGeometry x="280" y="452" width="60" height="30" as="geometry" />
        </mxCell>
        <mxCell id="bpLpSMuuCPS-NAAvhIt0-11" value="GoogleGrpc" style="text;html=1;strokeColor=none;fillColor=none;align=center;verticalAlign=middle;whiteSpace=wrap;rounded=0;" vertex="1" parent="1">
          <mxGeometry x="280" y="992" width="60" height="30" as="geometry" />
        </mxCell>
        <mxCell id="bpLpSMuuCPS-NAAvhIt0-12" value="AsyncClientImpl" style="swimlane;fontStyle=1;align=center;verticalAlign=top;childLayout=stackLayout;horizontal=1;startSize=26;horizontalStack=0;resizeParent=1;resizeParentMax=0;resizeLast=0;collapsible=1;marginBottom=0;" vertex="1" parent="1">
          <mxGeometry x="720" y="372" width="190" height="138" as="geometry" />
        </mxCell>
        <mxCell id="bpLpSMuuCPS-NAAvhIt0-13" value="+ friend class AsyncRequestImpl" style="text;strokeColor=none;fillColor=none;align=left;verticalAlign=top;spacingLeft=4;spacingRight=4;overflow=hidden;rotatable=0;points=[[0,0.5],[1,0.5]];portConstraint=eastwest;" vertex="1" parent="bpLpSMuuCPS-NAAvhIt0-12">
          <mxGeometry y="26" width="190" height="26" as="geometry" />
        </mxCell>
        <mxCell id="bpLpSMuuCPS-NAAvhIt0-86" value="+ friend class AssyncStreamImpl" style="text;strokeColor=none;fillColor=none;align=left;verticalAlign=top;spacingLeft=4;spacingRight=4;overflow=hidden;rotatable=0;points=[[0,0.5],[1,0.5]];portConstraint=eastwest;" vertex="1" parent="bpLpSMuuCPS-NAAvhIt0-12">
          <mxGeometry y="52" width="190" height="26" as="geometry" />
        </mxCell>
        <mxCell id="bpLpSMuuCPS-NAAvhIt0-14" value="" style="line;strokeWidth=1;fillColor=none;align=left;verticalAlign=middle;spacingTop=-1;spacingLeft=3;spacingRight=3;rotatable=0;labelPosition=right;points=[];portConstraint=eastwest;strokeColor=inherit;" vertex="1" parent="bpLpSMuuCPS-NAAvhIt0-12">
          <mxGeometry y="78" width="190" height="8" as="geometry" />
        </mxCell>
        <mxCell id="bpLpSMuuCPS-NAAvhIt0-80" value="+ sendRaw(...): AsyncRequest" style="text;strokeColor=none;fillColor=none;align=left;verticalAlign=top;spacingLeft=4;spacingRight=4;overflow=hidden;rotatable=0;points=[[0,0.5],[1,0.5]];portConstraint=eastwest;" vertex="1" parent="bpLpSMuuCPS-NAAvhIt0-12">
          <mxGeometry y="86" width="190" height="26" as="geometry" />
        </mxCell>
        <mxCell id="bpLpSMuuCPS-NAAvhIt0-78" value="+ startRaw(...): RawAsyncStream" style="text;strokeColor=none;fillColor=none;align=left;verticalAlign=top;spacingLeft=4;spacingRight=4;overflow=hidden;rotatable=0;points=[[0,0.5],[1,0.5]];portConstraint=eastwest;" vertex="1" parent="bpLpSMuuCPS-NAAvhIt0-12">
          <mxGeometry y="112" width="190" height="26" as="geometry" />
        </mxCell>
        <mxCell id="bpLpSMuuCPS-NAAvhIt0-16" value="GoogleAsyncClientImpl" style="swimlane;fontStyle=1;align=center;verticalAlign=top;childLayout=stackLayout;horizontal=1;startSize=26;horizontalStack=0;resizeParent=1;resizeParentMax=0;resizeLast=0;collapsible=1;marginBottom=0;" vertex="1" parent="1">
          <mxGeometry x="730" y="964" width="230" height="138" as="geometry" />
        </mxCell>
        <mxCell id="bpLpSMuuCPS-NAAvhIt0-17" value="+ friend class GoogleAsyncRequestImpl" style="text;strokeColor=none;fillColor=none;align=left;verticalAlign=top;spacingLeft=4;spacingRight=4;overflow=hidden;rotatable=0;points=[[0,0.5],[1,0.5]];portConstraint=eastwest;" vertex="1" parent="bpLpSMuuCPS-NAAvhIt0-16">
          <mxGeometry y="26" width="230" height="26" as="geometry" />
        </mxCell>
        <mxCell id="bpLpSMuuCPS-NAAvhIt0-87" value="+ friend class GoogleAsyncStreamImpl" style="text;strokeColor=none;fillColor=none;align=left;verticalAlign=top;spacingLeft=4;spacingRight=4;overflow=hidden;rotatable=0;points=[[0,0.5],[1,0.5]];portConstraint=eastwest;" vertex="1" parent="bpLpSMuuCPS-NAAvhIt0-16">
          <mxGeometry y="52" width="230" height="26" as="geometry" />
        </mxCell>
        <mxCell id="bpLpSMuuCPS-NAAvhIt0-18" value="" style="line;strokeWidth=1;fillColor=none;align=left;verticalAlign=middle;spacingTop=-1;spacingLeft=3;spacingRight=3;rotatable=0;labelPosition=right;points=[];portConstraint=eastwest;strokeColor=inherit;" vertex="1" parent="bpLpSMuuCPS-NAAvhIt0-16">
          <mxGeometry y="78" width="230" height="8" as="geometry" />
        </mxCell>
        <mxCell id="bpLpSMuuCPS-NAAvhIt0-19" value="+ sendRaw(...): AsyncRequest" style="text;strokeColor=none;fillColor=none;align=left;verticalAlign=top;spacingLeft=4;spacingRight=4;overflow=hidden;rotatable=0;points=[[0,0.5],[1,0.5]];portConstraint=eastwest;" vertex="1" parent="bpLpSMuuCPS-NAAvhIt0-16">
          <mxGeometry y="86" width="230" height="26" as="geometry" />
        </mxCell>
        <mxCell id="bpLpSMuuCPS-NAAvhIt0-79" value="+ startRaw(...): RawAsyncStream" style="text;strokeColor=none;fillColor=none;align=left;verticalAlign=top;spacingLeft=4;spacingRight=4;overflow=hidden;rotatable=0;points=[[0,0.5],[1,0.5]];portConstraint=eastwest;" vertex="1" parent="bpLpSMuuCPS-NAAvhIt0-16">
          <mxGeometry y="112" width="230" height="26" as="geometry" />
        </mxCell>
        <mxCell id="bpLpSMuuCPS-NAAvhIt0-20" value="RawAsyncClient" style="swimlane;fontStyle=1;align=center;verticalAlign=top;childLayout=stackLayout;horizontal=1;startSize=26;horizontalStack=0;resizeParent=1;resizeParentMax=0;resizeLast=0;collapsible=1;marginBottom=0;fontColor=#006600;" vertex="1" parent="1">
          <mxGeometry x="500" y="543" width="200" height="86" as="geometry" />
        </mxCell>
        <mxCell id="bpLpSMuuCPS-NAAvhIt0-22" value="" style="line;strokeWidth=1;fillColor=none;align=left;verticalAlign=middle;spacingTop=-1;spacingLeft=3;spacingRight=3;rotatable=0;labelPosition=right;points=[];portConstraint=eastwest;strokeColor=inherit;" vertex="1" parent="bpLpSMuuCPS-NAAvhIt0-20">
          <mxGeometry y="26" width="200" height="8" as="geometry" />
        </mxCell>
        <mxCell id="bpLpSMuuCPS-NAAvhIt0-23" value="+ sendRaw(...): AsyncRequest" style="text;strokeColor=none;fillColor=none;align=left;verticalAlign=top;spacingLeft=4;spacingRight=4;overflow=hidden;rotatable=0;points=[[0,0.5],[1,0.5]];portConstraint=eastwest;" vertex="1" parent="bpLpSMuuCPS-NAAvhIt0-20">
          <mxGeometry y="34" width="200" height="26" as="geometry" />
        </mxCell>
        <mxCell id="bpLpSMuuCPS-NAAvhIt0-30" value="+ startRaw(...): RawAsyncStream" style="text;strokeColor=none;fillColor=none;align=left;verticalAlign=top;spacingLeft=4;spacingRight=4;overflow=hidden;rotatable=0;points=[[0,0.5],[1,0.5]];portConstraint=eastwest;" vertex="1" parent="bpLpSMuuCPS-NAAvhIt0-20">
          <mxGeometry y="60" width="200" height="26" as="geometry" />
        </mxCell>
        <mxCell id="bpLpSMuuCPS-NAAvhIt0-24" value="" style="endArrow=block;dashed=1;endFill=0;endSize=12;html=1;rounded=0;entryX=1;entryY=0.25;entryDx=0;entryDy=0;" edge="1" parent="1" source="bpLpSMuuCPS-NAAvhIt0-12" target="bpLpSMuuCPS-NAAvhIt0-20">
          <mxGeometry width="160" relative="1" as="geometry">
            <mxPoint x="570" y="470" as="sourcePoint" />
            <mxPoint x="730" y="470" as="targetPoint" />
          </mxGeometry>
        </mxCell>
        <mxCell id="bpLpSMuuCPS-NAAvhIt0-27" value="" style="endArrow=block;dashed=1;endFill=0;endSize=12;html=1;rounded=0;" edge="1" parent="1" source="bpLpSMuuCPS-NAAvhIt0-16" target="bpLpSMuuCPS-NAAvhIt0-20">
          <mxGeometry width="160" relative="1" as="geometry">
            <mxPoint x="570" y="470" as="sourcePoint" />
            <mxPoint x="730" y="470" as="targetPoint" />
          </mxGeometry>
        </mxCell>
        <mxCell id="bpLpSMuuCPS-NAAvhIt0-31" value="AsyncRequest" style="swimlane;fontStyle=1;align=center;verticalAlign=top;childLayout=stackLayout;horizontal=1;startSize=26;horizontalStack=0;resizeParent=1;resizeParentMax=0;resizeLast=0;collapsible=1;marginBottom=0;fontColor=#FF0000;" vertex="1" parent="1">
          <mxGeometry x="780" y="550" width="160" height="60" as="geometry" />
        </mxCell>
        <mxCell id="bpLpSMuuCPS-NAAvhIt0-33" value="" style="line;strokeWidth=1;fillColor=none;align=left;verticalAlign=middle;spacingTop=-1;spacingLeft=3;spacingRight=3;rotatable=0;labelPosition=right;points=[];portConstraint=eastwest;strokeColor=inherit;" vertex="1" parent="bpLpSMuuCPS-NAAvhIt0-31">
          <mxGeometry y="26" width="160" height="8" as="geometry" />
        </mxCell>
        <mxCell id="bpLpSMuuCPS-NAAvhIt0-34" value="+ cancel(): void" style="text;strokeColor=none;fillColor=none;align=left;verticalAlign=top;spacingLeft=4;spacingRight=4;overflow=hidden;rotatable=0;points=[[0,0.5],[1,0.5]];portConstraint=eastwest;" vertex="1" parent="bpLpSMuuCPS-NAAvhIt0-31">
          <mxGeometry y="34" width="160" height="26" as="geometry" />
        </mxCell>
        <mxCell id="bpLpSMuuCPS-NAAvhIt0-35" value="RawAsyncStream" style="swimlane;fontStyle=1;align=center;verticalAlign=top;childLayout=stackLayout;horizontal=1;startSize=26;horizontalStack=0;resizeParent=1;resizeParentMax=0;resizeLast=0;collapsible=1;marginBottom=0;fontColor=#0000CC;" vertex="1" parent="1">
          <mxGeometry x="1300" y="580" width="190" height="112" as="geometry" />
        </mxCell>
        <mxCell id="bpLpSMuuCPS-NAAvhIt0-37" value="" style="line;strokeWidth=1;fillColor=none;align=left;verticalAlign=middle;spacingTop=-1;spacingLeft=3;spacingRight=3;rotatable=0;labelPosition=right;points=[];portConstraint=eastwest;strokeColor=inherit;" vertex="1" parent="bpLpSMuuCPS-NAAvhIt0-35">
          <mxGeometry y="26" width="190" height="8" as="geometry" />
        </mxCell>
        <mxCell id="bpLpSMuuCPS-NAAvhIt0-38" value="+ sendMessageRaw(...): void" style="text;strokeColor=none;fillColor=none;align=left;verticalAlign=top;spacingLeft=4;spacingRight=4;overflow=hidden;rotatable=0;points=[[0,0.5],[1,0.5]];portConstraint=eastwest;" vertex="1" parent="bpLpSMuuCPS-NAAvhIt0-35">
          <mxGeometry y="34" width="190" height="26" as="geometry" />
        </mxCell>
        <mxCell id="bpLpSMuuCPS-NAAvhIt0-95" value="+ closeStream(): void" style="text;strokeColor=none;fillColor=none;align=left;verticalAlign=top;spacingLeft=4;spacingRight=4;overflow=hidden;rotatable=0;points=[[0,0.5],[1,0.5]];portConstraint=eastwest;" vertex="1" parent="bpLpSMuuCPS-NAAvhIt0-35">
          <mxGeometry y="60" width="190" height="26" as="geometry" />
        </mxCell>
        <mxCell id="bpLpSMuuCPS-NAAvhIt0-96" value="+ resetStream(): void" style="text;strokeColor=none;fillColor=none;align=left;verticalAlign=top;spacingLeft=4;spacingRight=4;overflow=hidden;rotatable=0;points=[[0,0.5],[1,0.5]];portConstraint=eastwest;" vertex="1" parent="bpLpSMuuCPS-NAAvhIt0-35">
          <mxGeometry y="86" width="190" height="26" as="geometry" />
        </mxCell>
        <mxCell id="bpLpSMuuCPS-NAAvhIt0-39" value="GoogleAsyncRequestImpl" style="swimlane;fontStyle=1;align=center;verticalAlign=top;childLayout=stackLayout;horizontal=1;startSize=26;horizontalStack=0;resizeParent=1;resizeParentMax=0;resizeLast=0;collapsible=1;marginBottom=0;" vertex="1" parent="1">
          <mxGeometry x="990" y="977" width="160" height="86" as="geometry" />
        </mxCell>
        <mxCell id="bpLpSMuuCPS-NAAvhIt0-40" value="+ field: type" style="text;strokeColor=none;fillColor=none;align=left;verticalAlign=top;spacingLeft=4;spacingRight=4;overflow=hidden;rotatable=0;points=[[0,0.5],[1,0.5]];portConstraint=eastwest;" vertex="1" parent="bpLpSMuuCPS-NAAvhIt0-39">
          <mxGeometry y="26" width="160" height="26" as="geometry" />
        </mxCell>
        <mxCell id="bpLpSMuuCPS-NAAvhIt0-41" value="" style="line;strokeWidth=1;fillColor=none;align=left;verticalAlign=middle;spacingTop=-1;spacingLeft=3;spacingRight=3;rotatable=0;labelPosition=right;points=[];portConstraint=eastwest;strokeColor=inherit;" vertex="1" parent="bpLpSMuuCPS-NAAvhIt0-39">
          <mxGeometry y="52" width="160" height="8" as="geometry" />
        </mxCell>
        <mxCell id="bpLpSMuuCPS-NAAvhIt0-42" value="+ method(type): type" style="text;strokeColor=none;fillColor=none;align=left;verticalAlign=top;spacingLeft=4;spacingRight=4;overflow=hidden;rotatable=0;points=[[0,0.5],[1,0.5]];portConstraint=eastwest;" vertex="1" parent="bpLpSMuuCPS-NAAvhIt0-39">
          <mxGeometry y="60" width="160" height="26" as="geometry" />
        </mxCell>
        <mxCell id="bpLpSMuuCPS-NAAvhIt0-43" value="" style="endArrow=block;dashed=1;endFill=0;endSize=12;html=1;rounded=0;" edge="1" parent="1" source="bpLpSMuuCPS-NAAvhIt0-39" target="bpLpSMuuCPS-NAAvhIt0-31">
          <mxGeometry width="160" relative="1" as="geometry">
            <mxPoint x="570" y="470" as="sourcePoint" />
            <mxPoint x="730" y="470" as="targetPoint" />
            <Array as="points">
              <mxPoint x="990" y="620" />
            </Array>
          </mxGeometry>
        </mxCell>
        <mxCell id="bpLpSMuuCPS-NAAvhIt0-44" value="AsyncRequestImpl" style="swimlane;fontStyle=1;align=center;verticalAlign=top;childLayout=stackLayout;horizontal=1;startSize=26;horizontalStack=0;resizeParent=1;resizeParentMax=0;resizeLast=0;collapsible=1;marginBottom=0;" vertex="1" parent="1">
          <mxGeometry x="1000" y="424" width="160" height="86" as="geometry" />
        </mxCell>
        <mxCell id="bpLpSMuuCPS-NAAvhIt0-45" value="+ field: type" style="text;strokeColor=none;fillColor=none;align=left;verticalAlign=top;spacingLeft=4;spacingRight=4;overflow=hidden;rotatable=0;points=[[0,0.5],[1,0.5]];portConstraint=eastwest;" vertex="1" parent="bpLpSMuuCPS-NAAvhIt0-44">
          <mxGeometry y="26" width="160" height="26" as="geometry" />
        </mxCell>
        <mxCell id="bpLpSMuuCPS-NAAvhIt0-46" value="" style="line;strokeWidth=1;fillColor=none;align=left;verticalAlign=middle;spacingTop=-1;spacingLeft=3;spacingRight=3;rotatable=0;labelPosition=right;points=[];portConstraint=eastwest;strokeColor=inherit;" vertex="1" parent="bpLpSMuuCPS-NAAvhIt0-44">
          <mxGeometry y="52" width="160" height="8" as="geometry" />
        </mxCell>
        <mxCell id="bpLpSMuuCPS-NAAvhIt0-47" value="+ method(type): type" style="text;strokeColor=none;fillColor=none;align=left;verticalAlign=top;spacingLeft=4;spacingRight=4;overflow=hidden;rotatable=0;points=[[0,0.5],[1,0.5]];portConstraint=eastwest;" vertex="1" parent="bpLpSMuuCPS-NAAvhIt0-44">
          <mxGeometry y="60" width="160" height="26" as="geometry" />
        </mxCell>
        <mxCell id="bpLpSMuuCPS-NAAvhIt0-48" value="GoogleAsyncStreamImpl" style="swimlane;fontStyle=1;align=center;verticalAlign=top;childLayout=stackLayout;horizontal=1;startSize=26;horizontalStack=0;resizeParent=1;resizeParentMax=0;resizeLast=0;collapsible=1;marginBottom=0;" vertex="1" parent="1">
          <mxGeometry x="1250" y="954" width="160" height="86" as="geometry" />
        </mxCell>
        <mxCell id="bpLpSMuuCPS-NAAvhIt0-49" value="+ field: type" style="text;strokeColor=none;fillColor=none;align=left;verticalAlign=top;spacingLeft=4;spacingRight=4;overflow=hidden;rotatable=0;points=[[0,0.5],[1,0.5]];portConstraint=eastwest;" vertex="1" parent="bpLpSMuuCPS-NAAvhIt0-48">
          <mxGeometry y="26" width="160" height="26" as="geometry" />
        </mxCell>
        <mxCell id="bpLpSMuuCPS-NAAvhIt0-50" value="" style="line;strokeWidth=1;fillColor=none;align=left;verticalAlign=middle;spacingTop=-1;spacingLeft=3;spacingRight=3;rotatable=0;labelPosition=right;points=[];portConstraint=eastwest;strokeColor=inherit;" vertex="1" parent="bpLpSMuuCPS-NAAvhIt0-48">
          <mxGeometry y="52" width="160" height="8" as="geometry" />
        </mxCell>
        <mxCell id="bpLpSMuuCPS-NAAvhIt0-51" value="+ method(type): type" style="text;strokeColor=none;fillColor=none;align=left;verticalAlign=top;spacingLeft=4;spacingRight=4;overflow=hidden;rotatable=0;points=[[0,0.5],[1,0.5]];portConstraint=eastwest;" vertex="1" parent="bpLpSMuuCPS-NAAvhIt0-48">
          <mxGeometry y="60" width="160" height="26" as="geometry" />
        </mxCell>
        <mxCell id="bpLpSMuuCPS-NAAvhIt0-52" value="" style="endArrow=block;dashed=1;endFill=0;endSize=12;html=1;rounded=0;" edge="1" parent="1" source="bpLpSMuuCPS-NAAvhIt0-48" target="bpLpSMuuCPS-NAAvhIt0-35">
          <mxGeometry width="160" relative="1" as="geometry">
            <mxPoint x="570" y="470" as="sourcePoint" />
            <mxPoint x="730" y="470" as="targetPoint" />
          </mxGeometry>
        </mxCell>
        <mxCell id="bpLpSMuuCPS-NAAvhIt0-53" value="AsyncStreamImpl" style="swimlane;fontStyle=1;align=center;verticalAlign=top;childLayout=stackLayout;horizontal=1;startSize=26;horizontalStack=0;resizeParent=1;resizeParentMax=0;resizeLast=0;collapsible=1;marginBottom=0;" vertex="1" parent="1">
          <mxGeometry x="1240" y="415" width="160" height="86" as="geometry" />
        </mxCell>
        <mxCell id="bpLpSMuuCPS-NAAvhIt0-54" value="+ field: type" style="text;strokeColor=none;fillColor=none;align=left;verticalAlign=top;spacingLeft=4;spacingRight=4;overflow=hidden;rotatable=0;points=[[0,0.5],[1,0.5]];portConstraint=eastwest;" vertex="1" parent="bpLpSMuuCPS-NAAvhIt0-53">
          <mxGeometry y="26" width="160" height="26" as="geometry" />
        </mxCell>
        <mxCell id="bpLpSMuuCPS-NAAvhIt0-55" value="" style="line;strokeWidth=1;fillColor=none;align=left;verticalAlign=middle;spacingTop=-1;spacingLeft=3;spacingRight=3;rotatable=0;labelPosition=right;points=[];portConstraint=eastwest;strokeColor=inherit;" vertex="1" parent="bpLpSMuuCPS-NAAvhIt0-53">
          <mxGeometry y="52" width="160" height="8" as="geometry" />
        </mxCell>
        <mxCell id="bpLpSMuuCPS-NAAvhIt0-56" value="+ method(type): type" style="text;strokeColor=none;fillColor=none;align=left;verticalAlign=top;spacingLeft=4;spacingRight=4;overflow=hidden;rotatable=0;points=[[0,0.5],[1,0.5]];portConstraint=eastwest;" vertex="1" parent="bpLpSMuuCPS-NAAvhIt0-53">
          <mxGeometry y="60" width="160" height="26" as="geometry" />
        </mxCell>
        <mxCell id="bpLpSMuuCPS-NAAvhIt0-57" value="" style="endArrow=block;dashed=1;endFill=0;endSize=12;html=1;rounded=0;" edge="1" parent="1" source="bpLpSMuuCPS-NAAvhIt0-44" target="bpLpSMuuCPS-NAAvhIt0-31">
          <mxGeometry width="160" relative="1" as="geometry">
            <mxPoint x="790" y="470" as="sourcePoint" />
            <mxPoint x="950" y="470" as="targetPoint" />
          </mxGeometry>
        </mxCell>
        <mxCell id="bpLpSMuuCPS-NAAvhIt0-58" value="" style="endArrow=block;dashed=1;endFill=0;endSize=12;html=1;rounded=0;" edge="1" parent="1" source="bpLpSMuuCPS-NAAvhIt0-53" target="bpLpSMuuCPS-NAAvhIt0-35">
          <mxGeometry width="160" relative="1" as="geometry">
            <mxPoint x="790" y="470" as="sourcePoint" />
            <mxPoint x="950" y="470" as="targetPoint" />
          </mxGeometry>
        </mxCell>
        <mxCell id="bpLpSMuuCPS-NAAvhIt0-59" value="AsyncClient" style="swimlane;fontStyle=1;align=center;verticalAlign=top;childLayout=stackLayout;horizontal=1;startSize=26;horizontalStack=0;resizeParent=1;resizeParentMax=0;resizeLast=0;collapsible=1;marginBottom=0;" vertex="1" parent="1">
          <mxGeometry x="250" y="550" width="160" height="112" as="geometry" />
        </mxCell>
        <mxCell id="bpLpSMuuCPS-NAAvhIt0-60" value="+ client_: RawAsnycClient" style="text;strokeColor=none;fillColor=none;align=left;verticalAlign=top;spacingLeft=4;spacingRight=4;overflow=hidden;rotatable=0;points=[[0,0.5],[1,0.5]];portConstraint=eastwest;fontColor=#006600;" vertex="1" parent="bpLpSMuuCPS-NAAvhIt0-59">
          <mxGeometry y="26" width="160" height="26" as="geometry" />
        </mxCell>
        <mxCell id="bpLpSMuuCPS-NAAvhIt0-61" value="" style="line;strokeWidth=1;fillColor=none;align=left;verticalAlign=middle;spacingTop=-1;spacingLeft=3;spacingRight=3;rotatable=0;labelPosition=right;points=[];portConstraint=eastwest;strokeColor=inherit;" vertex="1" parent="bpLpSMuuCPS-NAAvhIt0-59">
          <mxGeometry y="52" width="160" height="8" as="geometry" />
        </mxCell>
        <mxCell id="bpLpSMuuCPS-NAAvhIt0-62" value="+ send(...): AsyncRequest" style="text;strokeColor=none;fillColor=none;align=left;verticalAlign=top;spacingLeft=4;spacingRight=4;overflow=hidden;rotatable=0;points=[[0,0.5],[1,0.5]];portConstraint=eastwest;fontColor=#FF0000;" vertex="1" parent="bpLpSMuuCPS-NAAvhIt0-59">
          <mxGeometry y="60" width="160" height="26" as="geometry" />
        </mxCell>
        <mxCell id="bpLpSMuuCPS-NAAvhIt0-63" value="+ start(...): AsyncStream" style="text;strokeColor=none;fillColor=none;align=left;verticalAlign=top;spacingLeft=4;spacingRight=4;overflow=hidden;rotatable=0;points=[[0,0.5],[1,0.5]];portConstraint=eastwest;fontColor=#FF8000;" vertex="1" parent="bpLpSMuuCPS-NAAvhIt0-59">
          <mxGeometry y="86" width="160" height="26" as="geometry" />
        </mxCell>
        <mxCell id="bpLpSMuuCPS-NAAvhIt0-66" value="Extends" style="endArrow=block;endSize=16;endFill=0;html=1;rounded=0;" edge="1" parent="1" source="bpLpSMuuCPS-NAAvhIt0-39" target="bpLpSMuuCPS-NAAvhIt0-48">
          <mxGeometry width="160" relative="1" as="geometry">
            <mxPoint x="800" y="794" as="sourcePoint" />
            <mxPoint x="960" y="794" as="targetPoint" />
          </mxGeometry>
        </mxCell>
        <mxCell id="bpLpSMuuCPS-NAAvhIt0-67" value="Extends" style="endArrow=block;endSize=16;endFill=0;html=1;rounded=0;" edge="1" parent="1" source="bpLpSMuuCPS-NAAvhIt0-44" target="bpLpSMuuCPS-NAAvhIt0-53">
          <mxGeometry width="160" relative="1" as="geometry">
            <mxPoint x="790" y="580" as="sourcePoint" />
            <mxPoint x="950" y="580" as="targetPoint" />
          </mxGeometry>
        </mxCell>
        <mxCell id="bpLpSMuuCPS-NAAvhIt0-68" value="RawAsyncStreamCallbacks" style="swimlane;fontStyle=1;align=center;verticalAlign=top;childLayout=stackLayout;horizontal=1;startSize=26;horizontalStack=0;resizeParent=1;resizeParentMax=0;resizeLast=0;collapsible=1;marginBottom=0;" vertex="1" parent="1">
          <mxGeometry x="1030" y="580" width="220" height="164" as="geometry" />
        </mxCell>
        <mxCell id="bpLpSMuuCPS-NAAvhIt0-70" value="" style="line;strokeWidth=1;fillColor=none;align=left;verticalAlign=middle;spacingTop=-1;spacingLeft=3;spacingRight=3;rotatable=0;labelPosition=right;points=[];portConstraint=eastwest;strokeColor=inherit;" vertex="1" parent="bpLpSMuuCPS-NAAvhIt0-68">
          <mxGeometry y="26" width="220" height="8" as="geometry" />
        </mxCell>
        <mxCell id="bpLpSMuuCPS-NAAvhIt0-71" value="+ onCreateInitialMetadata(...): void" style="text;strokeColor=none;fillColor=none;align=left;verticalAlign=top;spacingLeft=4;spacingRight=4;overflow=hidden;rotatable=0;points=[[0,0.5],[1,0.5]];portConstraint=eastwest;" vertex="1" parent="bpLpSMuuCPS-NAAvhIt0-68">
          <mxGeometry y="34" width="220" height="26" as="geometry" />
        </mxCell>
        <mxCell id="bpLpSMuuCPS-NAAvhIt0-106" value="+ onReceiveInitialMetadata(...): void" style="text;strokeColor=none;fillColor=none;align=left;verticalAlign=top;spacingLeft=4;spacingRight=4;overflow=hidden;rotatable=0;points=[[0,0.5],[1,0.5]];portConstraint=eastwest;" vertex="1" parent="bpLpSMuuCPS-NAAvhIt0-68">
          <mxGeometry y="60" width="220" height="26" as="geometry" />
        </mxCell>
        <mxCell id="bpLpSMuuCPS-NAAvhIt0-113" value="+ onReceiveMessageRaw(...): void" style="text;strokeColor=none;fillColor=none;align=left;verticalAlign=top;spacingLeft=4;spacingRight=4;overflow=hidden;rotatable=0;points=[[0,0.5],[1,0.5]];portConstraint=eastwest;" vertex="1" parent="bpLpSMuuCPS-NAAvhIt0-68">
          <mxGeometry y="86" width="220" height="26" as="geometry" />
        </mxCell>
        <mxCell id="bpLpSMuuCPS-NAAvhIt0-107" value="+ onReceiveTrailingMetadata(...): void" style="text;strokeColor=none;fillColor=none;align=left;verticalAlign=top;spacingLeft=4;spacingRight=4;overflow=hidden;rotatable=0;points=[[0,0.5],[1,0.5]];portConstraint=eastwest;" vertex="1" parent="bpLpSMuuCPS-NAAvhIt0-68">
          <mxGeometry y="112" width="220" height="26" as="geometry" />
        </mxCell>
        <mxCell id="bpLpSMuuCPS-NAAvhIt0-114" value="+ onRemoteClose(...): void" style="text;strokeColor=none;fillColor=none;align=left;verticalAlign=top;spacingLeft=4;spacingRight=4;overflow=hidden;rotatable=0;points=[[0,0.5],[1,0.5]];portConstraint=eastwest;" vertex="1" parent="bpLpSMuuCPS-NAAvhIt0-68">
          <mxGeometry y="138" width="220" height="26" as="geometry" />
        </mxCell>
        <mxCell id="bpLpSMuuCPS-NAAvhIt0-72" value="" style="endArrow=block;dashed=1;endFill=0;endSize=12;html=1;rounded=0;" edge="1" parent="1" source="bpLpSMuuCPS-NAAvhIt0-39" target="bpLpSMuuCPS-NAAvhIt0-68">
          <mxGeometry width="160" relative="1" as="geometry">
            <mxPoint x="790" y="580" as="sourcePoint" />
            <mxPoint x="950" y="580" as="targetPoint" />
          </mxGeometry>
        </mxCell>
        <mxCell id="bpLpSMuuCPS-NAAvhIt0-73" value="" style="endArrow=block;dashed=1;endFill=0;endSize=12;html=1;rounded=0;" edge="1" parent="1" source="bpLpSMuuCPS-NAAvhIt0-44" target="bpLpSMuuCPS-NAAvhIt0-68">
          <mxGeometry width="160" relative="1" as="geometry">
            <mxPoint x="790" y="580" as="sourcePoint" />
            <mxPoint x="950" y="580" as="targetPoint" />
          </mxGeometry>
        </mxCell>
        <mxCell id="bpLpSMuuCPS-NAAvhIt0-74" value="" style="endArrow=block;startArrow=block;endFill=1;startFill=1;html=1;rounded=0;exitX=1;exitY=0.5;exitDx=0;exitDy=0;" edge="1" parent="1" source="bpLpSMuuCPS-NAAvhIt0-4" target="bpLpSMuuCPS-NAAvhIt0-12">
          <mxGeometry width="160" relative="1" as="geometry">
            <mxPoint x="790" y="580" as="sourcePoint" />
            <mxPoint x="950" y="580" as="targetPoint" />
          </mxGeometry>
        </mxCell>
        <mxCell id="bpLpSMuuCPS-NAAvhIt0-75" value="" style="endArrow=block;startArrow=block;endFill=1;startFill=1;html=1;rounded=0;exitX=1;exitY=0.5;exitDx=0;exitDy=0;" edge="1" parent="1" source="bpLpSMuuCPS-NAAvhIt0-8" target="bpLpSMuuCPS-NAAvhIt0-16">
          <mxGeometry width="160" relative="1" as="geometry">
            <mxPoint x="800" y="794" as="sourcePoint" />
            <mxPoint x="960" y="794" as="targetPoint" />
          </mxGeometry>
        </mxCell>
        <mxCell id="bpLpSMuuCPS-NAAvhIt0-76" value="" style="endArrow=block;startArrow=block;endFill=1;startFill=1;html=1;rounded=0;exitX=1;exitY=0.5;exitDx=0;exitDy=0;" edge="1" parent="1" source="bpLpSMuuCPS-NAAvhIt0-23" target="bpLpSMuuCPS-NAAvhIt0-31">
          <mxGeometry width="160" relative="1" as="geometry">
            <mxPoint x="790" y="580" as="sourcePoint" />
            <mxPoint x="950" y="580" as="targetPoint" />
          </mxGeometry>
        </mxCell>
        <mxCell id="bpLpSMuuCPS-NAAvhIt0-77" value="" style="endArrow=block;startArrow=block;endFill=1;startFill=1;html=1;rounded=0;exitX=1;exitY=0.5;exitDx=0;exitDy=0;" edge="1" parent="1" source="bpLpSMuuCPS-NAAvhIt0-30" target="bpLpSMuuCPS-NAAvhIt0-35">
          <mxGeometry width="160" relative="1" as="geometry">
            <mxPoint x="790" y="580" as="sourcePoint" />
            <mxPoint x="950" y="580" as="targetPoint" />
            <Array as="points">
              <mxPoint x="780" y="770" />
              <mxPoint x="1240" y="770" />
            </Array>
          </mxGeometry>
        </mxCell>
        <mxCell id="bpLpSMuuCPS-NAAvhIt0-81" value="" style="endArrow=block;startArrow=block;endFill=1;startFill=1;html=1;rounded=0;exitX=1;exitY=0.5;exitDx=0;exitDy=0;" edge="1" parent="1" source="bpLpSMuuCPS-NAAvhIt0-19" target="bpLpSMuuCPS-NAAvhIt0-39">
          <mxGeometry width="160" relative="1" as="geometry">
            <mxPoint x="1010" y="1134" as="sourcePoint" />
            <mxPoint x="1170" y="1134" as="targetPoint" />
          </mxGeometry>
        </mxCell>
        <mxCell id="bpLpSMuuCPS-NAAvhIt0-82" value="" style="endArrow=block;startArrow=block;endFill=1;startFill=1;html=1;rounded=0;exitX=1;exitY=0.5;exitDx=0;exitDy=0;" edge="1" parent="1" source="bpLpSMuuCPS-NAAvhIt0-79" target="bpLpSMuuCPS-NAAvhIt0-48">
          <mxGeometry width="160" relative="1" as="geometry">
            <mxPoint x="1020" y="1114" as="sourcePoint" />
            <mxPoint x="1180" y="1114" as="targetPoint" />
            <Array as="points">
              <mxPoint x="1150" y="1114" />
            </Array>
          </mxGeometry>
        </mxCell>
        <mxCell id="bpLpSMuuCPS-NAAvhIt0-83" value="" style="endArrow=block;startArrow=block;endFill=1;startFill=1;html=1;rounded=0;exitX=1;exitY=0.5;exitDx=0;exitDy=0;" edge="1" parent="1" source="bpLpSMuuCPS-NAAvhIt0-80" target="bpLpSMuuCPS-NAAvhIt0-44">
          <mxGeometry width="160" relative="1" as="geometry">
            <mxPoint x="980" y="280" as="sourcePoint" />
            <mxPoint x="1140" y="280" as="targetPoint" />
          </mxGeometry>
        </mxCell>
        <mxCell id="bpLpSMuuCPS-NAAvhIt0-85" value="" style="endArrow=block;startArrow=block;endFill=1;startFill=1;html=1;rounded=0;exitX=1;exitY=0.5;exitDx=0;exitDy=0;" edge="1" parent="1" source="bpLpSMuuCPS-NAAvhIt0-78" target="bpLpSMuuCPS-NAAvhIt0-53">
          <mxGeometry width="160" relative="1" as="geometry">
            <mxPoint x="990" y="310" as="sourcePoint" />
            <mxPoint x="1150" y="310" as="targetPoint" />
            <Array as="points">
              <mxPoint x="1020" y="350" />
            </Array>
          </mxGeometry>
        </mxCell>
        <mxCell id="bpLpSMuuCPS-NAAvhIt0-89" value="" style="endArrow=block;startArrow=block;endFill=1;startFill=1;html=1;rounded=0;exitX=1;exitY=0.5;exitDx=0;exitDy=0;" edge="1" parent="1" source="bpLpSMuuCPS-NAAvhIt0-60" target="bpLpSMuuCPS-NAAvhIt0-20">
          <mxGeometry width="160" relative="1" as="geometry">
            <mxPoint x="440" y="690" as="sourcePoint" />
            <mxPoint x="600" y="690" as="targetPoint" />
          </mxGeometry>
        </mxCell>
        <mxCell id="bpLpSMuuCPS-NAAvhIt0-90" value="AsyncStream" style="swimlane;fontStyle=1;align=center;verticalAlign=top;childLayout=stackLayout;horizontal=1;startSize=26;horizontalStack=0;resizeParent=1;resizeParentMax=0;resizeLast=0;collapsible=1;marginBottom=0;fontColor=#FF8000;" vertex="1" parent="1">
          <mxGeometry x="450" y="654" width="170" height="86" as="geometry" />
        </mxCell>
        <mxCell id="bpLpSMuuCPS-NAAvhIt0-91" value="+ stream_: RawAsyncStream" style="text;strokeColor=none;fillColor=none;align=left;verticalAlign=top;spacingLeft=4;spacingRight=4;overflow=hidden;rotatable=0;points=[[0,0.5],[1,0.5]];portConstraint=eastwest;fontColor=#0000CC;" vertex="1" parent="bpLpSMuuCPS-NAAvhIt0-90">
          <mxGeometry y="26" width="170" height="26" as="geometry" />
        </mxCell>
        <mxCell id="bpLpSMuuCPS-NAAvhIt0-92" value="" style="line;strokeWidth=1;fillColor=none;align=left;verticalAlign=middle;spacingTop=-1;spacingLeft=3;spacingRight=3;rotatable=0;labelPosition=right;points=[];portConstraint=eastwest;strokeColor=inherit;" vertex="1" parent="bpLpSMuuCPS-NAAvhIt0-90">
          <mxGeometry y="52" width="170" height="8" as="geometry" />
        </mxCell>
        <mxCell id="bpLpSMuuCPS-NAAvhIt0-93" value="+ method(type): type" style="text;strokeColor=none;fillColor=none;align=left;verticalAlign=top;spacingLeft=4;spacingRight=4;overflow=hidden;rotatable=0;points=[[0,0.5],[1,0.5]];portConstraint=eastwest;" vertex="1" parent="bpLpSMuuCPS-NAAvhIt0-90">
          <mxGeometry y="60" width="170" height="26" as="geometry" />
        </mxCell>
        <mxCell id="bpLpSMuuCPS-NAAvhIt0-101" value="RawAsyncRequestCallbacks" style="swimlane;fontStyle=1;align=center;verticalAlign=top;childLayout=stackLayout;horizontal=1;startSize=26;horizontalStack=0;resizeParent=1;resizeParentMax=0;resizeLast=0;collapsible=1;marginBottom=0;" vertex="1" parent="1">
          <mxGeometry x="400" y="790" width="200" height="112" as="geometry" />
        </mxCell>
        <mxCell id="bpLpSMuuCPS-NAAvhIt0-102" value="" style="line;strokeWidth=1;fillColor=none;align=left;verticalAlign=middle;spacingTop=-1;spacingLeft=3;spacingRight=3;rotatable=0;labelPosition=right;points=[];portConstraint=eastwest;strokeColor=inherit;" vertex="1" parent="bpLpSMuuCPS-NAAvhIt0-101">
          <mxGeometry y="26" width="200" height="8" as="geometry" />
        </mxCell>
        <mxCell id="bpLpSMuuCPS-NAAvhIt0-103" value="+ onCreateInitialMetadata(...): void" style="text;strokeColor=none;fillColor=none;align=left;verticalAlign=top;spacingLeft=4;spacingRight=4;overflow=hidden;rotatable=0;points=[[0,0.5],[1,0.5]];portConstraint=eastwest;" vertex="1" parent="bpLpSMuuCPS-NAAvhIt0-101">
          <mxGeometry y="34" width="200" height="26" as="geometry" />
        </mxCell>
        <mxCell id="bpLpSMuuCPS-NAAvhIt0-104" value="+ onSuccessRaw(...): void" style="text;strokeColor=none;fillColor=none;align=left;verticalAlign=top;spacingLeft=4;spacingRight=4;overflow=hidden;rotatable=0;points=[[0,0.5],[1,0.5]];portConstraint=eastwest;" vertex="1" parent="bpLpSMuuCPS-NAAvhIt0-101">
          <mxGeometry y="60" width="200" height="26" as="geometry" />
        </mxCell>
        <mxCell id="bpLpSMuuCPS-NAAvhIt0-105" value="+ onFailure(...): void" style="text;strokeColor=none;fillColor=none;align=left;verticalAlign=top;spacingLeft=4;spacingRight=4;overflow=hidden;rotatable=0;points=[[0,0.5],[1,0.5]];portConstraint=eastwest;" vertex="1" parent="bpLpSMuuCPS-NAAvhIt0-101">
          <mxGeometry y="86" width="200" height="26" as="geometry" />
        </mxCell>
        <mxCell id="bpLpSMuuCPS-NAAvhIt0-119" value="AsyncRequestCallbacks" style="swimlane;fontStyle=1;align=center;verticalAlign=top;childLayout=stackLayout;horizontal=1;startSize=26;horizontalStack=0;resizeParent=1;resizeParentMax=0;resizeLast=0;collapsible=1;marginBottom=0;" vertex="1" parent="1">
          <mxGeometry x="180" y="803" width="200" height="86" as="geometry" />
        </mxCell>
        <mxCell id="bpLpSMuuCPS-NAAvhIt0-120" value="" style="line;strokeWidth=1;fillColor=none;align=left;verticalAlign=middle;spacingTop=-1;spacingLeft=3;spacingRight=3;rotatable=0;labelPosition=right;points=[];portConstraint=eastwest;strokeColor=inherit;" vertex="1" parent="bpLpSMuuCPS-NAAvhIt0-119">
          <mxGeometry y="26" width="200" height="8" as="geometry" />
        </mxCell>
        <mxCell id="bpLpSMuuCPS-NAAvhIt0-121" value="+ onSuccess(...): void" style="text;strokeColor=none;fillColor=none;align=left;verticalAlign=top;spacingLeft=4;spacingRight=4;overflow=hidden;rotatable=0;points=[[0,0.5],[1,0.5]];portConstraint=eastwest;" vertex="1" parent="bpLpSMuuCPS-NAAvhIt0-119">
          <mxGeometry y="34" width="200" height="26" as="geometry" />
        </mxCell>
        <mxCell id="bpLpSMuuCPS-NAAvhIt0-122" value="+ onSuccessRaw(...): void" style="text;strokeColor=none;fillColor=none;align=left;verticalAlign=top;spacingLeft=4;spacingRight=4;overflow=hidden;rotatable=0;points=[[0,0.5],[1,0.5]];portConstraint=eastwest;" vertex="1" parent="bpLpSMuuCPS-NAAvhIt0-119">
          <mxGeometry y="60" width="200" height="26" as="geometry" />
        </mxCell>
        <mxCell id="bpLpSMuuCPS-NAAvhIt0-128" value="AsyncStreamCallbacks" style="swimlane;fontStyle=1;align=center;verticalAlign=top;childLayout=stackLayout;horizontal=1;startSize=26;horizontalStack=0;resizeParent=1;resizeParentMax=0;resizeLast=0;collapsible=1;marginBottom=0;" vertex="1" parent="1">
          <mxGeometry x="1120" y="790" width="200" height="86" as="geometry" />
        </mxCell>
        <mxCell id="bpLpSMuuCPS-NAAvhIt0-129" value="" style="line;strokeWidth=1;fillColor=none;align=left;verticalAlign=middle;spacingTop=-1;spacingLeft=3;spacingRight=3;rotatable=0;labelPosition=right;points=[];portConstraint=eastwest;strokeColor=inherit;" vertex="1" parent="bpLpSMuuCPS-NAAvhIt0-128">
          <mxGeometry y="26" width="200" height="8" as="geometry" />
        </mxCell>
        <mxCell id="bpLpSMuuCPS-NAAvhIt0-130" value="+ onReceiveMessage(...): void" style="text;strokeColor=none;fillColor=none;align=left;verticalAlign=top;spacingLeft=4;spacingRight=4;overflow=hidden;rotatable=0;points=[[0,0.5],[1,0.5]];portConstraint=eastwest;" vertex="1" parent="bpLpSMuuCPS-NAAvhIt0-128">
          <mxGeometry y="34" width="200" height="26" as="geometry" />
        </mxCell>
        <mxCell id="bpLpSMuuCPS-NAAvhIt0-131" value="+ onReceiveMessageRaw(...): void" style="text;strokeColor=none;fillColor=none;align=left;verticalAlign=top;spacingLeft=4;spacingRight=4;overflow=hidden;rotatable=0;points=[[0,0.5],[1,0.5]];portConstraint=eastwest;" vertex="1" parent="bpLpSMuuCPS-NAAvhIt0-128">
          <mxGeometry y="60" width="200" height="26" as="geometry" />
        </mxCell>
        <mxCell id="bpLpSMuuCPS-NAAvhIt0-144" value="AsyncStream" style="swimlane;fontStyle=1;align=center;verticalAlign=top;childLayout=stackLayout;horizontal=1;startSize=26;horizontalStack=0;resizeParent=1;resizeParentMax=0;resizeLast=0;collapsible=1;marginBottom=0;" vertex="1" parent="1">
          <mxGeometry x="1550" y="570" width="200" height="138" as="geometry" />
        </mxCell>
        <mxCell id="bpLpSMuuCPS-NAAvhIt0-148" value="+ stream_: RawAsnycStream" style="text;strokeColor=none;fillColor=none;align=left;verticalAlign=top;spacingLeft=4;spacingRight=4;overflow=hidden;rotatable=0;points=[[0,0.5],[1,0.5]];portConstraint=eastwest;fontColor=#0000CC;" vertex="1" parent="bpLpSMuuCPS-NAAvhIt0-144">
          <mxGeometry y="26" width="200" height="26" as="geometry" />
        </mxCell>
        <mxCell id="bpLpSMuuCPS-NAAvhIt0-145" value="" style="line;strokeWidth=1;fillColor=none;align=left;verticalAlign=middle;spacingTop=-1;spacingLeft=3;spacingRight=3;rotatable=0;labelPosition=right;points=[];portConstraint=eastwest;strokeColor=inherit;" vertex="1" parent="bpLpSMuuCPS-NAAvhIt0-144">
          <mxGeometry y="52" width="200" height="8" as="geometry" />
        </mxCell>
        <mxCell id="bpLpSMuuCPS-NAAvhIt0-146" value="+ sendMessage(...): void" style="text;strokeColor=none;fillColor=none;align=left;verticalAlign=top;spacingLeft=4;spacingRight=4;overflow=hidden;rotatable=0;points=[[0,0.5],[1,0.5]];portConstraint=eastwest;" vertex="1" parent="bpLpSMuuCPS-NAAvhIt0-144">
          <mxGeometry y="60" width="200" height="26" as="geometry" />
        </mxCell>
        <mxCell id="bpLpSMuuCPS-NAAvhIt0-147" value="+ closeStream(): void" style="text;strokeColor=none;fillColor=none;align=left;verticalAlign=top;spacingLeft=4;spacingRight=4;overflow=hidden;rotatable=0;points=[[0,0.5],[1,0.5]];portConstraint=eastwest;" vertex="1" parent="bpLpSMuuCPS-NAAvhIt0-144">
          <mxGeometry y="86" width="200" height="26" as="geometry" />
        </mxCell>
        <mxCell id="bpLpSMuuCPS-NAAvhIt0-150" value="+ resetStream(): void" style="text;strokeColor=none;fillColor=none;align=left;verticalAlign=top;spacingLeft=4;spacingRight=4;overflow=hidden;rotatable=0;points=[[0,0.5],[1,0.5]];portConstraint=eastwest;" vertex="1" parent="bpLpSMuuCPS-NAAvhIt0-144">
          <mxGeometry y="112" width="200" height="26" as="geometry" />
        </mxCell>
        <mxCell id="bpLpSMuuCPS-NAAvhIt0-149" value="" style="endArrow=block;startArrow=block;endFill=1;startFill=1;html=1;rounded=0;fontColor=#0000CC;entryX=0;entryY=0.5;entryDx=0;entryDy=0;" edge="1" parent="1" source="bpLpSMuuCPS-NAAvhIt0-35" target="bpLpSMuuCPS-NAAvhIt0-148">
          <mxGeometry width="160" relative="1" as="geometry">
            <mxPoint x="1530" y="770" as="sourcePoint" />
            <mxPoint x="1690" y="770" as="targetPoint" />
          </mxGeometry>
        </mxCell>
      </root>
    </mxGraphModel>
  </diagram>
</mxfile>
